<?xml version="1.0" encoding="UTF-8" standalone="no"?>
<svg
   xmlns:dc="http://purl.org/dc/elements/1.1/"
   xmlns:cc="http://creativecommons.org/ns#"
   xmlns:rdf="http://www.w3.org/1999/02/22-rdf-syntax-ns#"
   xmlns:svg="http://www.w3.org/2000/svg"
   xmlns="http://www.w3.org/2000/svg"
   xmlns:xlink="http://www.w3.org/1999/xlink"
   xmlns:sodipodi="http://sodipodi.sourceforge.net/DTD/sodipodi-0.dtd"
   xmlns:inkscape="http://www.inkscape.org/namespaces/inkscape"
   width="40"
   height="25"
   viewBox="0 0 10.583333 6.6145835"
   version="1.1"
   id="svg8"
   inkscape:version="1.0.2-2 (e86c870879, 2021-01-15)"
   sodipodi:docname="nubes.svg">
  <defs
     id="defs2">
    <linearGradient
       inkscape:collect="always"
       id="linearGradient914">
      <stop
         style="stop-color:#1e669e;stop-opacity:1"
         offset="0"
         id="stop910" />
      <stop
         style="stop-color:#42c4a2;stop-opacity:1"
         offset="1"
         id="stop912" />
    </linearGradient>
    <linearGradient
       inkscape:collect="always"
       id="linearGradient891">
      <stop
         style="stop-color:#18569d;stop-opacity:1;"
         offset="0"
         id="stop887" />
      <stop
         style="stop-color:#43c8a2;stop-opacity:1"
         offset="1"
         id="stop889" />
    </linearGradient>
    <linearGradient
       inkscape:collect="always"
       xlink:href="#linearGradient891"
       id="linearGradient893"
       x1="277.85715"
       y1="368.57141"
       x2="99.160156"
       y2="249.66211"
       gradientUnits="userSpaceOnUse" />
    <linearGradient
       inkscape:collect="always"
       xlink:href="#linearGradient914"
       id="linearGradient916"
       x1="96.761909"
       y1="78.808037"
       x2="72.571426"
       y2="91.848213"
       gradientUnits="userSpaceOnUse" />
  </defs>
  <sodipodi:namedview
     id="base"
     pagecolor="#ffffff"
     bordercolor="#666666"
     borderopacity="1.0"
     inkscape:pageopacity="0.0"
     inkscape:pageshadow="2"
     inkscape:zoom="3.959798"
     inkscape:cx="50.058802"
     inkscape:cy="38.145766"
     inkscape:document-units="mm"
     inkscape:current-layer="layer1"
     inkscape:document-rotation="0"
     showgrid="false"
     showguides="true"
     inkscape:guide-bbox="true"
     units="px"
     inkscape:window-width="1258"
     inkscape:window-height="729"
     inkscape:window-x="78"
     inkscape:window-y="0"
     inkscape:window-maximized="0">
    <sodipodi:guide
       position="45.435819,193.83397"
       orientation="0,-1"
       id="guide41" />
  </sodipodi:namedview>
  <metadata
     id="metadata5">
    <rdf:RDF>
      <cc:Work
         rdf:about="">
        <dc:format>image/svg+xml</dc:format>
        <dc:type
           rdf:resource="http://purl.org/dc/dcmitype/StillImage" />
        <dc:title></dc:title>
      </cc:Work>
    </rdf:RDF>
  </metadata>
  <g
     inkscape:label="Capa 1"
     inkscape:groupmode="layer"
     id="layer1">
    <g
       id="g920"
       transform="matrix(0.12227409,0,0,0.12227409,-1.3904906,-6.0261685)">
      <path
         id="path10-1"
         style="fill:url(#linearGradient916);fill-opacity:1;fill-rule:evenodd;stroke-width:0.229545"
         d="m 68.202673,50.138696 c -8.05316,0.02338 -14.845151,6.004589 -15.886595,13.990157 -7.50075,1.51063 -12.89588,8.10074 -12.895781,15.752097 0,8.874204 7.193964,16.068169 16.068169,16.068169 5.2633,-2.09e-4 9.787032,-3.099821 13.166731,-3.770382 5.411428,0.883653 7.953234,3.737715 13.202729,3.737653 8.874202,0 16.068167,-7.193965 16.068167,-16.068169 C 97.926075,71.862306 92.061128,65.088336 84.15741,63.945485 83.031449,56.024613 76.249803,50.13876 68.249301,50.138696 c -0.01554,-2.4e-5 -0.03109,-2.4e-5 -0.04662,0 z"
         sodipodi:nodetypes="cccccccccc" />
      <path
         id="path10"
         style="fill:url(#linearGradient893);fill-opacity:1;fill-rule:evenodd;stroke-width:0.999999"
         d="m 168.36914,188.71484 c -35.0831,0.10185 -64.672,26.15863 -69.208984,60.94727 -32.676561,6.58097 -56.180117,35.29038 -56.179687,68.62305 10e-7,38.65993 31.340069,70 70.000001,70 22.92925,-9.1e-4 42.63661,-13.50418 57.36006,-16.42544 23.57456,3.84958 34.64778,16.28313 57.51689,16.28286 38.65993,0 70,-31.34007 70,-70 -10e-5,-34.79015 -25.55036,-64.30054 -59.98242,-69.2793 -4.90519,-34.5068 -34.44903,-60.14816 -69.30273,-60.14844 -0.0677,-1e-4 -0.13542,-1e-4 -0.20313,0 z"
         transform="scale(0.26458333)"
         sodipodi:nodetypes="cccccccccc" />
    </g>
  </g>
</svg>
